<mxfile host="65bd71144e">
    <diagram id="WJW5TnY9qj8YxZh8Rrt9" name="Página-1">
        <mxGraphModel dx="576" dy="461" grid="1" gridSize="10" guides="1" tooltips="1" connect="1" arrows="1" fold="1" page="1" pageScale="1" pageWidth="827" pageHeight="1169" math="0" shadow="0">
            <root>
                <mxCell id="0"/>
                <mxCell id="1" parent="0"/>
                <mxCell id="14" style="edgeStyle=none;html=1;exitX=0.5;exitY=1;exitDx=0;exitDy=0;entryX=0.5;entryY=0;entryDx=0;entryDy=0;fontSize=11;fillColor=#a20025;strokeColor=#6F0000;" edge="1" parent="1" source="12" target="13">
                    <mxGeometry relative="1" as="geometry"/>
                </mxCell>
                <mxCell id="12" value="Inicio" style="ellipse;whiteSpace=wrap;html=1;fontSize=11;fillColor=#1ba1e2;fontColor=#ffffff;strokeColor=#006EAF;" vertex="1" parent="1">
                    <mxGeometry x="230" y="40" width="120" height="60" as="geometry"/>
                </mxCell>
                <mxCell id="19" style="edgeStyle=none;html=1;exitX=0.5;exitY=1;exitDx=0;exitDy=0;entryX=0.5;entryY=0;entryDx=0;entryDy=0;fontSize=11;" edge="1" parent="1" source="13">
                    <mxGeometry relative="1" as="geometry">
                        <mxPoint x="290" y="230" as="targetPoint"/>
                    </mxGeometry>
                </mxCell>
                <mxCell id="13" value="r" style="shape=parallelogram;perimeter=parallelogramPerimeter;whiteSpace=wrap;html=1;fixedSize=1;fontSize=11;fillColor=#60a917;fontColor=#ffffff;strokeColor=#2D7600;" vertex="1" parent="1">
                    <mxGeometry x="230" y="150" width="120" height="40" as="geometry"/>
                </mxCell>
                <mxCell id="25" style="edgeStyle=none;html=1;fontSize=11;fillColor=#e51400;strokeColor=#B20000;" edge="1" parent="1" source="20">
                    <mxGeometry relative="1" as="geometry">
                        <mxPoint x="290" y="360" as="targetPoint"/>
                    </mxGeometry>
                </mxCell>
                <mxCell id="20" value="&amp;nbsp;P=2&lt;span style=&quot;color: rgb(31, 31, 31); font-family: &amp;quot;Google Sans&amp;quot;, Arial, sans-serif; font-size: 20px; text-align: left; background-color: rgb(255, 255, 255);&quot;&gt;&amp;nbsp;&lt;/span&gt;&lt;span style=&quot;outline: 0px; color: rgb(31, 31, 31); font-family: &amp;quot;Google Sans&amp;quot;, Arial, sans-serif; font-size: 20px; text-align: left; background-color: rgb(255, 255, 255);&quot; tabindex=&quot;0&quot; role=&quot;tooltip&quot;&gt;&lt;span style=&quot;cursor: pointer; outline: 0px;&quot; data-ved=&quot;2ahUKEwiu7aLSsY6LAxV8q4kEHc8NOMoQmpgGegQISxAD&quot; tabindex=&quot;0&quot; role=&quot;button&quot; data-width=&quot;250&quot; data-theme=&quot;0&quot; data-send-open-event=&quot;true&quot; data-hover-open-delay=&quot;500&quot; data-hover-hide-delay=&quot;1000&quot; data-extra-container-classes=&quot;ZLo7Eb&quot; data-enable-toggle-animation=&quot;true&quot; class=&quot;c5aZPb&quot;&gt;&lt;span style=&quot;border-bottom: 1px dashed rgba(4, 12, 40, 0.5); cursor: pointer;&quot; data-segment-text=&quot;περιφέρεια&quot; data-bubble-link=&quot;&quot; class=&quot;JPfdse&quot;&gt;π&lt;br&gt;&lt;/span&gt;&lt;/span&gt;&lt;/span&gt;A=&lt;span style=&quot;color: rgb(31, 31, 31); font-family: &amp;quot;Google Sans&amp;quot;, Arial, sans-serif; font-size: 20px; text-align: left; background-color: rgb(255, 255, 255);&quot;&gt;&amp;nbsp;&lt;/span&gt;&lt;span style=&quot;color: rgb(31, 31, 31); font-family: &amp;quot;Google Sans&amp;quot;, Arial, sans-serif; font-size: 20px; text-align: left; background-color: rgb(255, 255, 255);&quot;&gt;&amp;nbsp;&lt;/span&gt;&lt;span style=&quot;outline: 0px; color: rgb(31, 31, 31); font-family: &amp;quot;Google Sans&amp;quot;, Arial, sans-serif; font-size: 20px; text-align: left; background-color: rgb(255, 255, 255);&quot; tabindex=&quot;0&quot; role=&quot;tooltip&quot;&gt;&lt;span style=&quot;cursor: pointer; outline: 0px;&quot; data-ved=&quot;2ahUKEwiu7aLSsY6LAxV8q4kEHc8NOMoQmpgGegQISxAD&quot; tabindex=&quot;0&quot; role=&quot;button&quot; data-width=&quot;250&quot; data-theme=&quot;0&quot; data-send-open-event=&quot;true&quot; data-hover-open-delay=&quot;500&quot; data-hover-hide-delay=&quot;1000&quot; data-extra-container-classes=&quot;ZLo7Eb&quot; data-enable-toggle-animation=&quot;true&quot; class=&quot;c5aZPb&quot;&gt;&lt;span style=&quot;border-bottom: 1px dashed rgba(4, 12, 40, 0.5); cursor: pointer;&quot; data-segment-text=&quot;περιφέρεια&quot; data-bubble-link=&quot;&quot; class=&quot;JPfdse&quot;&gt;πr&lt;sup&gt;2&lt;/sup&gt;&lt;/span&gt;&lt;/span&gt;&lt;/span&gt;" style="rounded=0;whiteSpace=wrap;html=1;fontSize=11;fillColor=#6d8764;fontColor=#ffffff;strokeColor=#3A5431;" vertex="1" parent="1">
                    <mxGeometry x="230" y="230" width="120" height="90" as="geometry"/>
                </mxCell>
                <mxCell id="21" style="edgeStyle=none;html=1;fontSize=11;" edge="1" parent="1" source="20">
                    <mxGeometry relative="1" as="geometry">
                        <mxPoint x="290" y="320" as="targetPoint"/>
                    </mxGeometry>
                </mxCell>
                <mxCell id="31" style="edgeStyle=none;html=1;entryX=0.5;entryY=0;entryDx=0;entryDy=0;fontSize=11;fillColor=#e51400;strokeColor=#B20000;" edge="1" parent="1" target="30">
                    <mxGeometry relative="1" as="geometry">
                        <mxPoint x="290" y="420" as="sourcePoint"/>
                    </mxGeometry>
                </mxCell>
                <mxCell id="30" value="Fin" style="ellipse;whiteSpace=wrap;html=1;fontSize=11;fillColor=#0050ef;fontColor=#ffffff;strokeColor=#001DBC;" vertex="1" parent="1">
                    <mxGeometry x="230" y="460" width="120" height="80" as="geometry"/>
                </mxCell>
                <mxCell id="33" value="p,a&amp;nbsp;" style="shape=document;whiteSpace=wrap;html=1;boundedLbl=1;fontSize=11;fillColor=#6a00ff;fontColor=#ffffff;strokeColor=#3700CC;" vertex="1" parent="1">
                    <mxGeometry x="230" y="360" width="120" height="70" as="geometry"/>
                </mxCell>
            </root>
        </mxGraphModel>
    </diagram>
</mxfile>